<svg xmlns="http://www.w3.org/2000/svg" width="425" height="385" viewBox="0 0 425 385">
  <g id="img-dccc" transform="translate(-84.5 -17151.25)">
    <rect id="Rectangle_4226" data-name="Rectangle 4226" width="319" height="385" rx="20" transform="translate(155.5 17151.25)" fill="#1e1f21"/>
    <rect id="Rectangle_4227" data-name="Rectangle 4227" width="250" height="24" rx="8" transform="translate(179.5 17284.25)" fill="#fff" opacity="0.2"/>
    <rect id="Rectangle_4228" data-name="Rectangle 4228" width="278" height="24" rx="8" transform="translate(179.5 17326.25)" fill="#fff" opacity="0.2"/>
    <rect id="Rectangle_4229" data-name="Rectangle 4229" width="139" height="24" rx="8" transform="translate(179.5 17368.25)" fill="#fff" opacity="0.2"/>
    <g id="Group_12736" data-name="Group 12736" transform="translate(-10781.5 614)">
      <path id="Path_14651" data-name="Path 14651" d="M12,0H128a12,12,0,0,1,12,12V69a12,12,0,0,1-12,12H12A12,12,0,0,1,0,69V12A12,12,0,0,1,12,0Z" transform="translate(11151 16761)" fill="#c9d2ea"/>
      <path id="Path_14530" data-name="Path 14530" d="M-119.1,232.2h-11.39a.748.748,0,0,0-.708.768v1.371a.748.748,0,0,0,.708.768h11.39a.759.759,0,0,0,.722-.768v-1.356A.754.754,0,0,0-119.1,232.2Zm0,7.608h-11.39a.646.646,0,0,0-.5.226.764.764,0,0,0-.212.542v1.371a.748.748,0,0,0,.708.768h11.39a.749.749,0,0,0,.722-.768v-1.371A.749.749,0,0,0-119.1,239.808Zm-4.972,3.8h-6.417a.646.646,0,0,0-.5.226.83.83,0,0,0-.212.542v1.371a.748.748,0,0,0,.708.768h6.4a.734.734,0,0,0,.708-.753v-1.371A.706.706,0,0,0-124.074,243.6Zm5.695-7.608h-12.112a.646.646,0,0,0-.5.226.83.83,0,0,0-.212.542v1.371a.748.748,0,0,0,.708.768h12.1a.738.738,0,0,0,.708-.768v-1.371A.736.736,0,0,0-118.379,236Zm0,0" transform="translate(11298.2 16579.244)" fill="#00c3f7"/>
      <path id="Path_14531" data-name="Path 14531" d="M8.853,226.58a3.965,3.965,0,0,0-1.322-.9,4.075,4.075,0,0,0-1.58-.314,3.414,3.414,0,0,0-1.534.329,2.858,2.858,0,0,0-.851.614v-.239a.518.518,0,0,0-.122-.329.438.438,0,0,0-.334-.15H1.424a.384.384,0,0,0-.319.15.393.393,0,0,0-.122.329v11.194a.518.518,0,0,0,.122.329.44.44,0,0,0,.319.135H3.156a.44.44,0,0,0,.319-.135.372.372,0,0,0,.137-.329v-3.831a2.164,2.164,0,0,0,.911.584,4.131,4.131,0,0,0,3.008-.06,4.027,4.027,0,0,0,1.337-.9,4.335,4.335,0,0,0,.911-1.407,4.5,4.5,0,0,0,.334-1.841,4.893,4.893,0,0,0-.334-1.856A4.9,4.9,0,0,0,8.853,226.58ZM7.3,230.635a1.941,1.941,0,0,1-.41.644,1.875,1.875,0,0,1-1.367.584,1.7,1.7,0,0,1-.76-.165,2.163,2.163,0,0,1-.623-.419,1.8,1.8,0,0,1-.41-.644,2.158,2.158,0,0,1,0-1.571,1.968,1.968,0,0,1,.41-.629A2.213,2.213,0,0,1,4.767,228a1.926,1.926,0,0,1,.76-.165A1.761,1.761,0,0,1,6.3,228a1.908,1.908,0,0,1,.608.419,1.968,1.968,0,0,1,.41.629A2.369,2.369,0,0,1,7.3,230.635ZM19.4,225.607H17.679a.417.417,0,0,0-.319.135.47.47,0,0,0-.137.344v.21a2.245,2.245,0,0,0-.775-.584,3.493,3.493,0,0,0-1.5-.329A4.233,4.233,0,0,0,12,226.58a4.184,4.184,0,0,0-.942,1.407,4.537,4.537,0,0,0-.349,1.856,4.632,4.632,0,0,0,.349,1.856A4.422,4.422,0,0,0,12,233.1a4.147,4.147,0,0,0,2.932,1.212,3.288,3.288,0,0,0,1.5-.329,2.761,2.761,0,0,0,.79-.584v.225a.461.461,0,0,0,.137.329.51.51,0,0,0,.319.135H19.4a.417.417,0,0,0,.319-.135.461.461,0,0,0,.137-.329V226.1a.518.518,0,0,0-.122-.329.45.45,0,0,0-.334-.165Zm-2.324,5.029a1.941,1.941,0,0,1-.41.644,2.143,2.143,0,0,1-.608.434,1.832,1.832,0,0,1-1.534,0,2.213,2.213,0,0,1-.623-.434,1.8,1.8,0,0,1-.41-.644,2.326,2.326,0,0,1,0-1.571,1.88,1.88,0,0,1,.41-.629A2.016,2.016,0,0,1,14.52,228a1.8,1.8,0,0,1,1.519,0,1.908,1.908,0,0,1,.608.419,2.261,2.261,0,0,1,.41.629A2.123,2.123,0,0,1,17.072,230.635Zm19.43-1.018a2.966,2.966,0,0,0-.836-.509,5.925,5.925,0,0,0-1-.3l-1.306-.254a1.571,1.571,0,0,1-.7-.254.41.41,0,0,1-.182-.329.428.428,0,0,1,.243-.359,1.375,1.375,0,0,1,.729-.165,2.68,2.68,0,0,1,.972.195,5.9,5.9,0,0,1,.866.449.667.667,0,0,0,.942-.075l.623-.7a.678.678,0,0,0,.2-.434.667.667,0,0,0-.243-.449,4.928,4.928,0,0,0-1.246-.7,5.443,5.443,0,0,0-2.112-.359,4.627,4.627,0,0,0-1.5.21,4.181,4.181,0,0,0-1.155.584,2.51,2.51,0,0,0-1,1.99,2.274,2.274,0,0,0,.638,1.691,3.2,3.2,0,0,0,1.686.838l1.367.3a3.054,3.054,0,0,1,.866.269.394.394,0,0,1,.243.374.493.493,0,0,1-.243.4,1.406,1.406,0,0,1-.805.195,2.463,2.463,0,0,1-1.079-.239,4.2,4.2,0,0,1-.881-.569,1.684,1.684,0,0,0-.395-.224.606.606,0,0,0-.547.165l-.744.554a.612.612,0,0,0-.258.644,1.374,1.374,0,0,0,.623.778,5.984,5.984,0,0,0,4.77.718,3.992,3.992,0,0,0,1.215-.6,2.477,2.477,0,0,0,.79-.928,2.526,2.526,0,0,0,.273-1.152,2.276,2.276,0,0,0-.213-1.048A3.182,3.182,0,0,0,36.5,229.618Zm7.5,2.05a.531.531,0,0,0-.38-.254.764.764,0,0,0-.441.135,1.48,1.48,0,0,1-.7.224,1.347,1.347,0,0,1-.243-.03.42.42,0,0,1-.228-.12.983.983,0,0,1-.182-.254.937.937,0,0,1-.076-.449v-3.068h2.218a.5.5,0,0,0,.349-.15.451.451,0,0,0,.152-.329v-1.3a.383.383,0,0,0-.152-.329.475.475,0,0,0-.334-.135H41.758v-2.1a.437.437,0,0,0-.137-.329.609.609,0,0,0-.319-.135H39.571a.49.49,0,0,0-.486.464v2.1H38.1a.434.434,0,0,0-.334.15.518.518,0,0,0-.122.329v1.3a.518.518,0,0,0,.122.329.394.394,0,0,0,.334.15h.987v3.652a2.749,2.749,0,0,0,.258,1.257,2.62,2.62,0,0,0,.668.853,2.438,2.438,0,0,0,.942.479,3.769,3.769,0,0,0,1.079.165,4.57,4.57,0,0,0,1.413-.224,2.661,2.661,0,0,0,1.109-.688.58.58,0,0,0,.061-.733Zm9.388-6.061H51.678a.44.44,0,0,0-.319.135.47.47,0,0,0-.137.344v.21a2.112,2.112,0,0,0-.775-.584,3.493,3.493,0,0,0-1.5-.329A4.233,4.233,0,0,0,46,226.58a4.184,4.184,0,0,0-.942,1.407,4.514,4.514,0,0,0-.349,1.841,4.632,4.632,0,0,0,.349,1.856A4.422,4.422,0,0,0,46,233.09a4.121,4.121,0,0,0,2.932,1.212,3.479,3.479,0,0,0,1.5-.314,2.568,2.568,0,0,0,.79-.584v.224a.4.4,0,0,0,.137.314.44.44,0,0,0,.319.135h1.717a.444.444,0,0,0,.456-.449V226.1a.518.518,0,0,0-.122-.329.406.406,0,0,0-.334-.165Zm-2.309,5.028a1.941,1.941,0,0,1-.41.644,2.143,2.143,0,0,1-.608.434,1.942,1.942,0,0,1-.775.165,1.871,1.871,0,0,1-.76-.165,2.213,2.213,0,0,1-.623-.434,1.581,1.581,0,0,1-.395-.644,2.326,2.326,0,0,1,0-1.571,1.928,1.928,0,0,1,.395-.629,2.213,2.213,0,0,1,.623-.434,1.926,1.926,0,0,1,.76-.165,1.807,1.807,0,0,1,.775.165,2.092,2.092,0,0,1,.608.419,1.743,1.743,0,0,1,.41.629A2.2,2.2,0,0,1,51.086,230.635Zm11.728.913-.987-.748a.518.518,0,0,0-.517-.135,1.226,1.226,0,0,0-.365.254,3.96,3.96,0,0,1-.744.673,1.677,1.677,0,0,1-.957.224,1.834,1.834,0,0,1-1.079-.329,1.76,1.76,0,0,1-.684-.9,2.25,2.25,0,0,1-.137-.763,2.42,2.42,0,0,1,.137-.793,1.705,1.705,0,0,1,.395-.629,1.838,1.838,0,0,1,.608-.419,1.942,1.942,0,0,1,.775-.165,1.785,1.785,0,0,1,.957.239,2.879,2.879,0,0,1,.744.673,1,1,0,0,0,.349.254.518.518,0,0,0,.517-.135l.987-.733a.622.622,0,0,0,.258-.329.473.473,0,0,0-.046-.449,4.256,4.256,0,0,0-1.519-1.407,4.719,4.719,0,0,0-2.294-.554,4.952,4.952,0,0,0-1.793.344,4.421,4.421,0,0,0-2.415,2.365,4.517,4.517,0,0,0,0,3.5A4.123,4.123,0,0,0,55.977,233a4.623,4.623,0,0,0,3.236,1.287,4.72,4.72,0,0,0,2.294-.554,4.211,4.211,0,0,0,1.534-1.422.548.548,0,0,0,.046-.434.939.939,0,0,0-.273-.329Zm9.145,1.751-2.719-3.921,2.324-3.023a.527.527,0,0,0,.091-.494c-.046-.12-.152-.239-.441-.239H69.376a.7.7,0,0,0-.3.075.64.64,0,0,0-.273.254l-1.853,2.559h-.441v-6.046a.461.461,0,0,0-.137-.329.44.44,0,0,0-.319-.135H64.333a.475.475,0,0,0-.334.135.437.437,0,0,0-.137.329v11.149a.437.437,0,0,0,.137.329.475.475,0,0,0,.334.135h1.717a.417.417,0,0,0,.319-.135.461.461,0,0,0,.137-.329v-2.948h.486l2.02,3.053a.675.675,0,0,0,.592.359h1.929a.472.472,0,0,0,.471-.254.535.535,0,0,0-.046-.524Zm-42.81-7.692H27.22a.542.542,0,0,0-.395.15.664.664,0,0,0-.182.314l-1.428,5.208h-.349l-1.519-5.208a1,1,0,0,0-.152-.314.457.457,0,0,0-.349-.165h-1.96c-.258,0-.41.075-.486.254a.8.8,0,0,0,0,.464l2.431,7.333a.761.761,0,0,0,.182.3.522.522,0,0,0,.365.135h1.033l-.091.239-.228.673a1.1,1.1,0,0,1-.38.524.884.884,0,0,1-.577.18,1.512,1.512,0,0,1-.517-.1,2.273,2.273,0,0,1-.456-.269.731.731,0,0,0-.441-.135h-.015a.54.54,0,0,0-.441.269l-.608.883a.535.535,0,0,0,.046.763,3.1,3.1,0,0,0,1.139.658,4.357,4.357,0,0,0,1.443.239,3.313,3.313,0,0,0,2.172-.7,4.043,4.043,0,0,0,1.231-1.916l2.826-9.069a.655.655,0,0,0,.015-.479c-.015-.1-.122-.224-.38-.224Zm0,0" transform="translate(11184.744 16588)" fill="#011b33"/>
      <path id="Path_14652" data-name="Path 14652" d="M1.86,4.32H3.47A2.185,2.185,0,1,0,3.46-.05H1V7h.86Zm0-.76V.74H3.34A1.394,1.394,0,0,1,4.77,2.12,1.432,1.432,0,0,1,3.34,3.56ZM6.72,2.34V3.2a2.906,2.906,0,0,1,1.66-.6c.76,0,1.25.4,1.25,1.11v.2l-1.41.2c-1.2.17-1.87.68-1.87,1.56A1.505,1.505,0,0,0,7.98,7.12a1.9,1.9,0,0,0,1.71-.99V7h.78V3.72A1.83,1.83,0,0,0,8.44,1.83,3.126,3.126,0,0,0,6.72,2.34ZM8.11,6.4a.825.825,0,0,1-.93-.78c0-.48.42-.78,1.18-.88l1.29-.17v.32A1.554,1.554,0,0,1,8.11,6.4Zm3.47,2.58a1.642,1.642,0,0,0,.72.14c.86,0,1.24-.49,1.55-1.26l2.39-5.91h-.91L13.8,5.92,12.25,1.95H11.3l2.09,4.98-.24.63c-.23.59-.48.83-.92.83a1.2,1.2,0,0,1-.65-.17ZM20.37,7h.84l1.32-3.86L23.86,7h.83l1.68-5.05h-.89L24.24,5.86l-1.3-3.9h-.82l-1.3,3.9L19.58,1.95H18.7ZM27.86-.16A.559.559,0,0,0,27.3.4a.56.56,0,1,0,1.12,0A.559.559,0,0,0,27.86-.16ZM27.43,7h.85V1.95h-.85Zm5.11-.82a1.266,1.266,0,0,1-.6.15.769.769,0,0,1-.86-.88V2.67h1.3V1.96h-1.3V.48l-.83.26V1.96h-.79v.71h.77V5.55a1.425,1.425,0,0,0,1.53,1.57,1.651,1.651,0,0,0,.78-.16ZM33.73-.05V7h.85V4.32a1.553,1.553,0,0,1,1.51-1.71,1.226,1.226,0,0,1,1.25,1.35V7h.85V3.92a1.9,1.9,0,0,0-1.93-2.09,1.84,1.84,0,0,0-1.68.92V-.05Z" transform="translate(11167 16777)" fill="#4b4b4d"/>
    </g>
    <g id="Group_12737" data-name="Group 12737" transform="translate(-10754.5 460)">
      <path id="Path_14649" data-name="Path 14649" d="M12,0H128a12,12,0,0,1,12,12V69a12,12,0,0,1-12,12H12A12,12,0,0,1,0,69V12A12,12,0,0,1,12,0Z" transform="translate(10839 16761)" fill="#fff"/>
      <path id="stripe-4" d="M2.7,6.269c0-.416.342-.577.908-.577a5.957,5.957,0,0,1,2.649.684V3.866A7.043,7.043,0,0,0,3.61,3.375C1.442,3.375,0,4.507,0,6.4c0,2.948,4.058,2.478,4.058,3.749,0,.491-.427.651-1.025.651A6.648,6.648,0,0,1,.117,9.943v2.542a7.4,7.4,0,0,0,2.916.609c2.221,0,3.749-1.1,3.749-3.012C6.771,6.9,2.7,7.465,2.7,6.269Zm7.22-5.03-2.606.555L7.3,10.349a2.683,2.683,0,0,0,2.766,2.745,4.125,4.125,0,0,0,1.869-.352V10.573c-.342.139-2.029.63-2.029-.951V5.831H11.94V3.556H9.911Zm5.34,3.108-.171-.79H12.784V12.9h2.67V6.568a1.884,1.884,0,0,1,2.029-.555V3.556a1.813,1.813,0,0,0-2.221.79Zm2.873-.79h2.681V12.9H18.134V3.556Zm0-.812,2.681-.577V0L18.134.566V2.745Zm8.256.63a3.017,3.017,0,0,0-2.093.833l-.139-.662H21.808V16l2.67-.566.011-3.022a3.007,3.007,0,0,0,1.89.673c1.912,0,3.652-1.538,3.652-4.923-.011-3.1-1.773-4.785-3.642-4.785Zm-.641,7.358a1.6,1.6,0,0,1-1.26-.5l-.011-3.962a1.59,1.59,0,0,1,1.271-.523c.972,0,1.645,1.089,1.645,2.488,0,1.431-.662,2.5-1.645,2.5Zm12.7-2.467c0-2.734-1.324-4.891-3.855-4.891s-4.08,2.157-4.08,4.87c0,3.215,1.816,4.838,4.421,4.838a5.955,5.955,0,0,0,2.958-.694V10.253a5.67,5.67,0,0,1-2.617.587c-1.036,0-1.954-.363-2.072-1.623h5.222c0-.139.021-.694.021-.951ZM33.171,7.252c0-1.207.737-1.709,1.41-1.709.651,0,1.346.5,1.346,1.709Z" transform="translate(10855 16810)" fill="#6772e5"/>
      <path id="Path_14650" data-name="Path 14650" d="M1.86,4.32H3.47A2.185,2.185,0,1,0,3.46-.05H1V7h.86Zm0-.76V.74H3.34A1.394,1.394,0,0,1,4.77,2.12,1.432,1.432,0,0,1,3.34,3.56ZM6.72,2.34V3.2a2.906,2.906,0,0,1,1.66-.6c.76,0,1.25.4,1.25,1.11v.2l-1.41.2c-1.2.17-1.87.68-1.87,1.56A1.505,1.505,0,0,0,7.98,7.12a1.9,1.9,0,0,0,1.71-.99V7h.78V3.72A1.83,1.83,0,0,0,8.44,1.83,3.126,3.126,0,0,0,6.72,2.34ZM8.11,6.4a.825.825,0,0,1-.93-.78c0-.48.42-.78,1.18-.88l1.29-.17v.32A1.554,1.554,0,0,1,8.11,6.4Zm3.47,2.58a1.642,1.642,0,0,0,.72.14c.86,0,1.24-.49,1.55-1.26l2.39-5.91h-.91L13.8,5.92,12.25,1.95H11.3l2.09,4.98-.24.63c-.23.59-.48.83-.92.83a1.2,1.2,0,0,1-.65-.17ZM20.37,7h.84l1.32-3.86L23.86,7h.83l1.68-5.05h-.89L24.24,5.86l-1.3-3.9h-.82l-1.3,3.9L19.58,1.95H18.7ZM27.86-.16A.559.559,0,0,0,27.3.4a.56.56,0,1,0,1.12,0A.559.559,0,0,0,27.86-.16ZM27.43,7h.85V1.95h-.85Zm5.11-.82a1.266,1.266,0,0,1-.6.15.769.769,0,0,1-.86-.88V2.67h1.3V1.96h-1.3V.48l-.83.26V1.96h-.79v.71h.77V5.55a1.425,1.425,0,0,0,1.53,1.57,1.651,1.651,0,0,0,.78-.16ZM33.73-.05V7h.85V4.32a1.553,1.553,0,0,1,1.51-1.71,1.226,1.226,0,0,1,1.25,1.35V7h.85V3.92a1.9,1.9,0,0,0-1.93-2.09,1.84,1.84,0,0,0-1.68.92V-.05Z" transform="translate(10855 16777)" fill="#4b4b4d"/>
      <path id="Path_14653" data-name="Path 14653" d="M8,0A8,8,0,1,1,0,8,8,8,0,0,1,8,0Z" transform="translate(10966 16757)" fill="#3daa7e"/>
      <path id="Path_14648" data-name="Path 14648" d="M4.08-6.36l1.8-3.192h.1L7.752-6.36,9.48-7.44,7.656-10.7v-.048l2.952-.84-.552-1.992-3.072.96-.048-.048V-16.32H4.92v3.648l-.048.048L1.8-13.584l-.552,1.992,2.952.84v.048L2.352-7.44Z" transform="translate(10968.071 16776.34)" fill="#fff"/>
    </g>
    <circle id="Ellipse_6125" data-name="Ellipse 6125" cx="8.5" cy="8.5" r="8.5" transform="translate(175.5 17169.25)" fill="#ff6a6a"/>
    <circle id="Ellipse_6126" data-name="Ellipse 6126" cx="8.5" cy="8.5" r="8.5" transform="translate(200.5 17169.25)" fill="#ffe26a"/>
    <circle id="Ellipse_6127" data-name="Ellipse 6127" cx="8.5" cy="8.5" r="8.5" transform="translate(225.5 17169.25)" fill="#24b57a"/>
  </g>
</svg>
