<svg xmlns="http://www.w3.org/2000/svg" width="64" height="64" viewBox="0 0 64 64">
  <g id="ic-link-bio" transform="translate(-160 -1010)">
    <path id="Path_16128" data-name="Path 16128" d="M20,0H44A20,20,0,0,1,64,20V44A20,20,0,0,1,44,64H20A20,20,0,0,1,0,44V20A20,20,0,0,1,20,0Z" transform="translate(160 1010)" fill="#bbffed"/>
    <g id="target" transform="translate(180 1030)">
      <path id="Path_15349" data-name="Path 15349" d="M11,8a3.006,3.006,0,0,1,2.6,1.508A1,1,0,0,0,15.52,9.1a1.01,1.01,0,0,0-.121-.478A5,5,0,1,0,8.622,15.4a1.046,1.046,0,0,0,.488.121,1,1,0,0,0,.438-1.895A3,3,0,0,1,11,8Z" fill="#1e1f21"/>
      <path id="Path_15350" data-name="Path 15350" d="M11.55,19.99,11,20a9,9,0,1,1,9-9l-.01.55a1,1,0,0,0,2,0L22,11A11,11,0,1,0,11,22l.55-.01a1,1,0,0,0,0-2Z" fill="#1e1f21"/>
      <path id="Path_15351" data-name="Path 15351" d="M23.353,14.579,11.332,10.044a1,1,0,0,0-1.289,1.289l4.535,12.021a1,1,0,0,0,.937.646h.024a1,1,0,0,0,.927-.692l1.671-5.171,5.171-1.671a1,1,0,0,0,.045-1.887Z" fill="#1e1f21" opacity="0.35"/>
    </g>
  </g>
</svg>
