<svg xmlns="http://www.w3.org/2000/svg" width="64" height="64" viewBox="0 0 64 64">
  <g id="ic-billa" transform="translate(-160 -1010)">
    <path id="Path_16129" data-name="Path 16129" d="M20,0H44A20,20,0,0,1,64,20V44A20,20,0,0,1,44,64H20A20,20,0,0,1,0,44V20A20,20,0,0,1,20,0Z" transform="translate(160 1010)" fill="#fff7bb"/>
    <g id="people_around" data-name="people around" transform="translate(180 1030)">
      <path id="Path_15316" data-name="Path 15316" d="M17.439,15.53a1,1,0,0,1-.905-1.423A4.934,4.934,0,0,0,17,12,5,5,0,0,0,7,12a4.934,4.934,0,0,0,.466,2.107,1,1,0,1,1-1.812.846A6.93,6.93,0,0,1,5,12a7,7,0,1,1,13.347,2.953A1,1,0,0,1,17.439,15.53Z" fill="#1e1f21"/>
      <path id="Path_15317" data-name="Path 15317" d="M21.349,18.79a1,1,0,0,1-.846-1.53A10,10,0,1,0,2,12a9.9,9.9,0,0,0,1.5,5.26A1,1,0,0,1,1.8,18.321,12,12,0,1,1,24,12a11.888,11.888,0,0,1-1.8,6.32A1,1,0,0,1,21.349,18.79Z" fill="#1e1f21"/>
      <g id="Group_12887" data-name="Group 12887" transform="translate(6 10)">
        <circle id="Ellipse_5616" data-name="Ellipse 5616" cx="3" cy="3" r="3" transform="translate(3)" fill="#1e1f21" opacity="0.35"/>
        <path id="Path_15318" data-name="Path 15318" d="M15,17H9a3,3,0,0,0-3,3v3a1,1,0,0,0,1,1H17a1,1,0,0,0,1-1V20A3,3,0,0,0,15,17Z" transform="translate(-6 -10)" fill="#1e1f21" opacity="0.35"/>
      </g>
    </g>
  </g>
</svg>
