<svg xmlns="http://www.w3.org/2000/svg" width="64" height="64" viewBox="0 0 64 64">
  <g id="ic-invoicing" transform="translate(-517 -1010)">
    <path id="Path_16130" data-name="Path 16130" d="M20,0H44A20,20,0,0,1,64,20V44A20,20,0,0,1,44,64H20A20,20,0,0,1,0,44V20A20,20,0,0,1,20,0Z" transform="translate(517 1010)" fill="#fff"/>
    <g id="contract" transform="translate(540 1031)">
      <path id="Path_15286" data-name="Path 15286" d="M20.707,6.293l-5-5A1,1,0,0,0,15,1H6A3,3,0,0,0,3,4V20a3,3,0,0,0,3,3H18a3,3,0,0,0,3-3V7A1,1,0,0,0,20.707,6.293ZM8,5h5a1,1,0,0,1,0,2H8A1,1,0,0,1,8,5Zm6,14H13a2.908,2.908,0,0,1-2.55-1.4c-.337-.449-.45-.6-.95-.6a1.7,1.7,0,0,0-1.534,1.258,1,1,0,0,1-1.932-.516A3.673,3.673,0,0,1,9.5,15a2.908,2.908,0,0,1,2.55,1.4c.337.449.45.6.95.6h1a1,1,0,0,1,0,2Zm2-8H8A1,1,0,0,1,8,9h8a1,1,0,0,1,0,2Z" transform="translate(-3 -1)" fill="#1e1f21"/>
    </g>
  </g>
</svg>
